<?xml version="1.0" encoding="utf-8"?>
<!-- Generator: Adobe Illustrator 26.4.1, SVG Export Plug-In . SVG Version: 6.00 Build 0)  -->
<svg version="1.1" id="Layer_1" xmlns="http://www.w3.org/2000/svg" xmlns:xlink="http://www.w3.org/1999/xlink" x="0px" y="0px"
	 viewBox="0 0 999 999" style="enable-background:new 0 0 999 999;" xml:space="preserve">
<style type="text/css">
	.st0{fill:#0D132C;}
	.st1{fill:#E1B2A4;}
	.st2{opacity:0.14;fill:none;stroke:#000000;stroke-width:0.25;stroke-miterlimit:10;enable-background:new    ;}
	.st3{fill:url(#SVGID_1_);}
	.st4{fill:url(#SVGID_00000135667800816326788040000014578287434664956561_);}
	.st5{fill:url(#SVGID_00000146491948139276061940000016924487998147170954_);}
	.st6{fill:#AD4D7B;}
	.st7{fill:#E2B8AB;}
	.st8{fill:#987785;}
	.st9{fill:url(#SVGID_00000098910279336410874210000008640939273900474554_);}
	.st10{fill:url(#SVGID_00000090288921979113903250000005558951269616622987_);}
	.st11{fill:url(#SVGID_00000065074771766834285610000004362182871076394383_);}
	.st12{fill:url(#SVGID_00000088844164184285411820000009927102242953781410_);}
	.st13{fill:url(#SVGID_00000010284472627993732610000015856119409699680905_);}
</style>
<g>
	<g id="Face">
		<path class="st0" d="M703.8,462c0,0,8.8-3.5,8.8-8.8s0-12.4,5.3-14.1c0,0,3.5-1.8,7.1-8.8c0,0,5.3-3.5,12.4-12.4
			c0,0,3.5-7.1,10.6-15.9c0,0,1.8,5.3,0,7.1c0,0,1.8,0,3.5-7.1c0,0,0-1.8,1.8-3.5c0,0,1.8-1.8,1.8-5.3c0,0,0-1.8,1.8-3.5
			c0,0,0-1.8,1.8-5.3c1.8-3.5,0-5.3,0-8.8c0,0,0-3.5-3.5-7.1c0,0,1.8-1.8,7.1,1.8c0,0,1.8,3.5,1.8,8.8c0,0,1.8-5.3,0-8.8
			c0,0-3.5-3.5-5.3-3.5c0,0-1.8-1.8,0-1.8s7.1,3.5,7.1,5.3c0,0,1.8,1.8,1.8,3.5c0,0,1.8-3.5-3.5-7.1c-5.3-3.5,0-1.8,0-1.8
			s1.8,3.5,3.5,3.5s1.8-1.8,3.5,0c0,0,0-1.8-1.8-1.8s-7.1-5.3-7.1-5.3s1.8,0,5.3,3.5c0,0,3.5,1.8,5.3,3.5c0,0,0-1.8-8.8-7.1
			c0,0,7.1,3.5,12.4,5.3c0,0-5.3-5.3-8.8-5.3c0,0,1.8-1.8,10.6,3.5c0,0,0-1.8-5.3-3.5c0,0-6.9-1.7-8.8-3.5c0,0,0,0-0.1-0.1
			c-1.8-1.8-3.5-1.8-3.5-1.8s-1.8-1.8,1.8-1.8c0,0,5.3,5.3,7.1,5.3c0,0,5.3,0,7.1-1.8c0,0-3.5,0-5.3-1.8c0,0-3.5,0-5.3-1.8
			c0,0,5.3,1.8,8.8,0l1.8-1.8c0,0-1.8,0-3.5-1.8c0,0-1.8,1.8-5.3-1.8c0,0,1.8-1.8,7.1-1.8c0,0,5.3-1.8,7.1-5.3c0,0,1.8-1.8,3.5-3.5
			c0,0-1.8,1.8-3.5,0c0,0,3.5,0,3.5-7.1c0,0,0-1.8-1.8,0s-1.8,0-1.8,0h-1.8l3.5-1.8h-3.5l3.5-3.5l-3.5,1.8l5.3-7.1l-5.3,3.5l3.5-5.3
			l-5.3,3.5l5.3-7.1l-5.3,3.5l5.3-7.1l-5.3,3.5l7.1-7.1c0,0,3.5-5.3,3.5-7.1s-1.8-5.3-3.5-5.3s-1.8-1.8-1.8-1.8l-1.8,1.8v-3.5
			l-1.8,1.8v-3.5l-3.5,1.8c0,0,3.5-3.5,3.5-7.1c0,0,0,1.8,1.8,0c0,0,1.8-3.5,0-5.3s-1.8-3.5-1.8-3.5s3.5-3.5,3.5-7.1v-3.5
			c0-1.8,1.8-3.5,0-5.3c-1.8-1.8-3.5-3.5-3.5-7.1s1.8-3.5,1.8-3.5s0-1.8-3.5-1.8s1.8-5.3,1.8-5.3s0-7.1-1.8-7.1s0,1.8,0,3.5
			s0,3.5-3.5,0s-3.5-7.1-3.5-7.1l-3.5-5.3c0,0,1.8-1.8,0-3.5s0-5.3,0-5.3s-1.8-3.5-3.5-1.8c-1.8,1.8-5.3-1.8-5.3-3.5
			s-1.8-1.8,1.8-5.3c3.5-3.5,1.8,0,1.8,0s3.5-1.8,1.8-3.5c-1.8-1.8-3.5,1.8-3.5,1.8s0-3.5,1.8-3.5s5.3-5.3,5.3-5.3l5.3-5.3
			c0,0-1.8,0-3.5,1.8l-5.3,5.3c0,0,1.8-3.5,3.5-5.3s0-5.3,0-5.3s3.5-5.3,3.5-7.1s-5.3,5.3-5.3,5.3s1.8-5.3,0-5.3s-1.8-5.3-1.8-5.3
			s0-5.3-1.8-5.3s-5.3-3.5-5.3-3.5s-3.5,0-5.3-1.8c-1.8-1.8-3.5-3.5-3.5-3.5s-1.8-1.8-3.5-1.8s-5.3-1.8-5.3-1.8s-3.5-1.8-3.5-3.5
			s-7.1-3.5-7.1-3.5h-7.1c-1.8,0-5.3-1.8-5.3-1.8h-5.3c0,0,0-3.5,1.8-3.5s1.8-5.3,1.8-5.3s-5.3,3.5-7.1,3.5s-5.3,1.8-5.3,3.5
			s-3.5-1.8-3.5-5.3s-7.1-5.3-8.8-5.3s-7.1,1.8-10.6,3.5c-3.5,1.8-8.8,0-8.8-1.8s0-3.5-3.5-5.3s-1.8-1.8-3.5-3.5s-5.3-1.8-3.5-3.5
			c1.8-1.8,3.5,0,3.5,0s0-3.5-1.8-3.5s-1.8-3.5-1.8-3.5s0-3.5-1.8-3.5s-3.5-5.3-7.1-3.5s-10.6,0-10.6,0s-7.1-3.5-3.5-5.3
			s5.3,0,5.3,0s1.8-1.8,3.5-1.8s3.5-1.8,0-1.8h-8.8c-3.5,0-7.1-3.5-7.1-3.5s5.3-1.8,7.1-1.8s1.8-1.8,1.8-1.8h-5.3l8.8-1.8h-5.3
			l5.3-1.8h-5.3l3.5-3.5l-7.1,1.8l1.8-1.8l-10.6,1.8c0,0-7.1,1.8-8.8,3.5c-1.8,1.8-8.8,3.5-8.8,3.5l8.8-8.8l-10.6,5.3l8.8-7.1
			l-12.4,5.3l10.6-8.8l-14.1,7.1l8.8-8.8l-12.4,7.1l5.3-8.8l-10.6,7.1l3.5-8.8l-10.6,8.8L592.4,73c0,0-14.1,8.8-14.1,10.6
			s-10.6,10.6-12.4,5.3c-1.8-5.3-10.6-3.5-10.6-3.5l-3.5,7.1c0,0-5.3-3.5-5.3-7.1s-1.8-7.1-1.8-7.1s0,7.1-1.8,8.8s-7.1-1.8-7.1-1.8
			s-1.8-3.5,1.8-8.8c0,0-5.3,3.5-5.3,7.1s-5.3,7.1-5.3,7.1s-1.8,3.5-1.8,7.1c0,0-3.5,3.5-5.3,7.1c-1.8,3.5-7.1,0-7.1,0
			s-7.1,1.8-7.1-1.8s-5.3,5.3-5.3,5.3s-3.5,3.5-3.5,5.3s-3.5,5.3-5.3,5.3s-1.8,5.3-1.8,5.3l-3.5-1.8l1.8,5.3l-5.3,1.8
			c0,0-5.3,3.5-14.1,5.3c-8.8,1.8-12.4,12.4-12.4,12.4s-5.3,7.1-10.6,7.1s-1.8,7.1-1.8,7.1s-3.5,1.8-8.8,0s-10.6,7.1-10.6,7.1
			s5.3-5.3,10.6-3.5c5.3,1.8,3.5,1.8,0,5.3s-1.8,5.3-7.1,5.3s-5.3,7.1-5.3,10.6s5.3,1.8,7.1,8.8c1.8,7.1-8.8-1.8-8.8-1.8l5.3,8.8
			l-8.8-7.1v8.8l-3.5-7.1c0,0-1.8-3.5-3.5-3.5s-1.8,1.8-1.8,3.5s-3.5,0-3.5,0s-5.3,1.8-5.3,5.3s-1.8,8.8-1.8,12.4s0,10.6,5.3,15.9
			s17.7,12.4,26.5,14.1c0,0-24.8-3.5-30-12.4c0,0,1.8,12.4,23,14.1c0,0-17.7,1.8-24.8-7.1c0,0,0,5.3,8.8,8.8c0,0-8.8,0-12.4-7.1
			c0,0,0,5.3,5.3,8.8c0,0-3.5,0-7.1-1.8c0,0,5.3,8.8,10.6,10.6c0,0-3.5,0-7.1-3.5c0,0,3.5,5.3,5.3,7.1c0,0-7.1-3.5-7.1-5.3l0,0l0,0
			c0,0-1.8,1.8,0,3.5c1.8,1.8,5.3,8.8,14.1,12.4c0,0,0,3.5,5.3,8.8s7.2,11,7.2,11s12.2-7.5,29.9-9.3c17.7-1.8,63.6,76,63.6,76
			l70.7,83.1l99,35.4l5.3,1.8c0,0,3.5-1.8,7.1-5.3c0,0,0-3.5,1.8-5.3C700.3,467.2,703.8,461.9,703.8,462"/>
		<path class="st1" d="M504.9,503.5c0,0-1.8,19.4,1.8,53c0,0-14.1,7.1-17.7,12.4c0,0-3.5,1.8,0,5.3c0,0,8,6.2,22.1,23.9
			c0,0,7.1,5.3,15.9,15.9c0,0,1.8,5.3,8.8,10.6c0,0,3.5,3.5,8.8,5.3c0,0,5.3,3.5,8.8,7.1c0,0,8.8,5.3,10.6,8.8
			c0,0,12.4,10.6,23,12.4c0,0,8.8,1.8,19.5,7.1c0,0,8.8,5.3,12.4,5.3c0,0,8.8,3.5,14.1,5.3c0,0,7.1,0,15.9,3.5
			c0,0,12.4,5.3,19.5-5.3c0,0,5.3-7.1,17.7-15.9c0,0,17.7-12.4,28.3-15.9c0,0,8.8-5.3,15.9-10.6c0,0,14.1-12.4,30-15.9
			c0,0,10.5-3.5,8.9-21c0-0.1,0-0.2,0-0.2c0,0,1.8-15.9,0-33.6v-28.3c0,0-3.5-1.8-17.7-1.8c0,0-19.5,0-33.6-3.5c0,0-7.1,0-17.7-5.3
			s-8.8-17.7-8.8-17.7l-1.8-24.8c0,0,0-14.1,1.8-21.2c0,0,0-21.2,1.8-24.8c0,0,1.8-3.5,1.8-10.6s10.6-19.5,10.6-19.5
			s10.6-3.5,15.9-12.4c0,0,5.3-3.5,8.8-8.8c0,0,1.8-3.5,5.3-7.1c0,0,8.8-10.6,8.8-14.1c0-1.8,5.3-5.3,0-26.5c0,0-5.3-12.4-14.1-15.9
			c0,0-7.1-3.5-19.5,1.8c0,0-8.8,3.5-12.4,3.5c0,0-3.5,0-1.8,1.8c0,0,0,1.8,1.8,3.5c0,0,0,1.8-5.3-3.5c-5.3-5.3-3.5-1.8-3.5-1.8
			s1.8,5.3,7.1,7.1c0,0-5.3,1.8-10.6-5.3c0,0-1.8,0,0,1.8l3.5,3.5c0,0-1.8,0-3.5-1.8c0,0,0,1.8,1.8,3.5c0,0-1.8,0-3.5-1.8
			c0,0,1.8,3.5,3.5,3.5c0,0-3.5,1.8-7.1-5.3c0,0,1.8,7.1,10.6,8.8c0,0-1.8,1.8-5.3,0c0,0-5.3-1.8-7.1-5.3c0,0-1.8-1.8-3.5-5.3
			c0,0-1.8-3.5-1.8,0c0,0,0,5.3,5.3,12.4c0,0,5.3,5.3,8.8,5.3c0,0,5.3,1.8-3.5,0c-8.8-1.8-10.6-7.1-10.6-7.1s1.8,12.4,0,17.7
			l-1.8-8.8l-1.8,8.8l-1.8-10.6l-3.5,10.6v-14.1l-1.8,8.8v-8.8l-1.8,7.1V340l-3.5,7.1l1.8-8.8l-5.3,7.1l1.8-7.1l-3.5,5.3
			c0,0,1.8-3.5,0-5.3c0,0,5.3-3.5,5.3-12.4c0,0,0-12.4-8.8-17.7c0,0-5.3-3.5,1.8-8.8s5.3-15.9,1.8-21.2
			c-3.5-5.3-14.1-26.5-14.1-26.5s1.8,1.8,5.3,3.5l-1.8-3.5l3.5,1.8l-5.3-7.1l7.1,3.5l-8.8-8.8l8.8,5.3l-8.8-7.1l8.8,3.5l-7.1-5.3
			l8.8,3.5l-5.3-7.1c0,0,5.3,5.3,5.3,3.5s-5.3-5.3-5.3-5.3l5.3,1.8l-3.5-3.5h3.5l-3.5-3.5l3.5,1.8l-3.5-5.3l3.5-1.8l-3.5-3.5
			c0,0-1.8-5.3-21.2-8.8c0,0-12.4-3.5-31.8-5.3c0,0-10.6-3.5-21.2-3.5c0,0-1.8,0-15.9-1.8c0,0-7.1,0-15.9,1.8c0,0-10.6,3.5-17.7,7.1
			c0,0-7.1,1.8-8.8,5.3c0,0-5.3,0-10.6,1.8c0,0-5.3,1.8-12.4,7.1c0,0-3.5,1.8-14.1,14.1c0,0-7.1,8.8-10.6,15.9c0,0-3.5,5.3-7.1,14.1
			c0,0-5.3,8.8-7.1,17.7c0,0-1.8,3.5-5.3,8.8c-0.6,0.9-1.8,3.5-5.3,7.1c0,0-1.8,1.8-1.8,5.3c0,0.5,1.7,4.8,1.8,5.3
			c0.3,1.6-1.8,3.5,0,8.8c0,0,0,1.8,1.8,8.8V340c0,0,0,5.3-1.8,8.8c0,0-1.8,1.8-1.8,3.5v5.3l0,0c0,0-3.5,5.3-5.3,12.4
			c0,0-1.8,10.6,0,21.2c0,0,3.5,15.9,7.1,28.3c0,0,3.5,10.6,7.1,19.5c0,0,5.3,15.9,10.6,26.5c5.3,10.6,7.1,15.9,7.1,15.9
			s5.3,14.1,17.7,17.7c0,0,8.8,3.5,15.9,3.5S504.9,503.6,504.9,503.5L504.9,503.5z"/>
		<path class="st1" d="M446.7,290.7c0,0-1.6,2.4-2.3,3.7c0,0-1.1,1.8-2,2.8c0,0-0.5,0.6-1.4,1.5c0,0-1.3,1.1-1.6,2.1
			c0,0-1.2,2.9-0.9,3.9s0.7,2.9,1.8,5.3c0,0,0,1-0.5,2.6c0,0-0.5,2.2-0.1,3.8c0,0,0.2,1.5,0.6,2.4c0,0,0.6,4.8,1.8,8.8v12.7
			c0,0,0,4.9-1.8,8.5c0,0-1.8,1.8-1.8,3.4c0,0,6.5-2,10.4-3.8c0,0,4.8-2.1,5.7-2.7c0,0,2.4-1.2,4.3-3.6c0,0,3.4-4.1,4-5.4
			c0,0,3.2-5.4,3.4-6.7c0,0,1.8-4.8,2.2-6c0,0,1.6-5.2,1.9-7.5c0,0,1.4-8.3,1.5-10.5c0,0,0.3-3.8,0.4-4.4c0,0,0-3-0.7-5.2
			c0,0-0.8-2.4-1.5-3.3c0,0-1.1-1.4-3.9-2.1c0,0-4.8-0.9-8.6-0.9c0,0-3.8,0-5.3,0.2C452.3,290.3,447.9,290.3,446.7,290.7
			L446.7,290.7z"/>
		<path id="glass" class="st0" d="M695,309.9c-15.9-12.4-35.4-24.8-35.4-24.8L603,251.6c-8.8-1.8-28.3,0-28.3,0
			c-21.2,1.8-35.4,7.1-35.4,7.1c-8.8,1.8-28.3,12.4-28.3,12.4c-10.6,7.1-23,8.8-23,8.8s-14.1,3.5-17.7,3.5s-5.3-1.8-19.5,0
			c-14.1,1.8-21.2,5.3-21.2,5.3c-12.4,5.3-30,15.9-30,15.9c-1.8,10.6,0,19.5,0,19.5c1.8,0,3.5,3.5,3.5,3.5
			c1.8,12.4,3.5,15.9,3.5,15.9c1.8,14.1,12.4,14.1,12.4,14.1c5.3,1.8,17.7,0,17.7,0c1.8,0,8.8-1.8,8.8-1.8
			c5.3-1.8,12.4-5.3,12.4-5.3c3.5-3.5,7.1-5.3,7.1-5.3c3.5-12.4,7.1-15.9,7.1-15.9c2.9-5.9,9.5-15.4,11.7-18.5
			c0.4-0.6,0.5-1.3,0.3-2c-1.4-3.7-1.4-9.6-1.4-9.6c1.8-7.1,8.8-7.1,8.8-7.1c3.5,1.8,5.3,7.1,5.3,7.1c1.8,7.1,5.3,17.7,5.3,17.7
			c7.1,14.1,19.4,15.9,19.4,15.9c7.1,1.8,17.7,1.8,26.5,0c0.1,0,0.2,0,0.3-0.1c8.8-1.8,20.9-7,20.9-7c5.3-1.8,14.1-8.8,14.1-8.8
			c1.8-1.8,5.3-8.8,5.3-8.8c5.3-7.1,5.3-19.5,5.3-19.5c0-8.8,1.8-10.6,1.8-10.6c1.8-3.5,5.3-3.5,5.3-3.5c4.1,0,6.1,2.1,6.8,3.1
			c0.2,0.3,0.5,0.5,0.9,0.7c5.8,2.1,20.6,8.6,20.6,8.6c12.4,5.3,37.1,17.7,37.1,17.7c8.8,3.5,14.1,1.8,14.1,1.8
			c1.8,0,23,14.1,23,14.1c3.5,3.5,3.5,0,3.5,0L695,309.9L695,309.9z M408.4,324.6c0,0,0-4.7,0.9-9.9
			C409.2,315.2,408.5,320.2,408.4,324.6C408.4,324.6,408.4,324.6,408.4,324.6L408.4,324.6z M472.3,301.9c0,0-0.6,7.8-1.5,12.4
			c0,0-1.2,9.3-6.1,19.2c0,0-4.3,8.6-9.7,11.9c0,0-9.7,4.9-13.4,5.5c0,0-8.2,2.5-15.5,2.6c0,0-7.3,0.6-10.3-2.7c0,0-4-2.5-5.7-11
			c0,0-1.3-5-1.6-12.3c0,0,2.3,0,3.8,1.2c0,0,22.6,11.9,28.9,16.1c0,0,1.6,0.2,2-9.8c0,0-15.3-12.8-31.2-24.1c0,0-1.4-1.9-2.4,2
			c0.1-0.6,0.2-1.2,0.4-1.8c0,0,2.1-4,5.9-7.5c0,0,4.1-3.4,9.2-6.3c0,0,8-3.7,14.1-5.2c0,0,7.2-2.2,13-2.1c0,0,4-0.6,10.8,0.2
			c0,0,5.5,0.2,7.3,2.9C470.3,293.4,472.7,296.9,472.3,301.9L472.3,301.9z M586,291.2c0,0,0.1,8.2-4.9,17.3c0,0-5.5,8.4-14.1,11.6
			c0,0-10,4.5-20.1,6.5c0,0-12.3,2.5-18,2.2c0,0-10.2,0.8-14.6-4.9c0,0-0.5-1-1.3-2.6c0.8,0.1,1.7-0.6,2.3-3.3
			c1.6-7.3-0.5-11.6-0.5-11.6c-1-2.7-5.6-7.8-5.6-7.8c-0.5-0.2-1.7-1.4-2.9-2.7c0-0.7,0-1.5,0.1-2.2c0,0,0.8-5.9,3.8-9.4
			c0,0,5-7,13.8-11.4c0,0,11-5.7,18.2-7.4c0,0,9.6-3.2,15.2-3.2c0,0,6.9-0.8,12.5,0c0,0,4.5,0.1,8.3,1.6c0,0,4.8,2.4,6.5,9.2
			C584.7,273.1,586.3,279.9,586,291.2L586,291.2z"/>
		<path class="st2" d="M504.9,503.5c0,0,12,0.1,20.4-0.7c0.7-0.1,1.4-0.2,2.1-0.4c4.7-1.2,22.8-6.3,37.5-16.3
			c1.2-0.8,2.5-1.5,3.9-1.9c5.1-1.5,18-5.2,26.5-5.6c1.1,0,2.1-0.2,3.2-0.4c3.6-1,11.5-3.8,14.2-10.8c0,0,7.2-13.2,0-23.4"/>
		<g id="Nose">
			
				<linearGradient id="SVGID_1_" gradientUnits="userSpaceOnUse" x1="509.1332" y1="295.3806" x2="486.6733" y2="762.9607" gradientTransform="matrix(1 0 0 -1 0 1000)">
				<stop  offset="0" style="stop-color:#7A4B4B"/>
				<stop  offset="4.000000e-02" style="stop-color:#825352"/>
				<stop  offset="0.24" style="stop-color:#AA7B74"/>
				<stop  offset="0.4" style="stop-color:#C2938A"/>
				<stop  offset="0.49" style="stop-color:#CC9D92"/>
				<stop  offset="0.58" style="stop-color:#D3A498"/>
				<stop  offset="0.77" style="stop-color:#DDAEA1"/>
				<stop  offset="1" style="stop-color:#E1B2A4"/>
			</linearGradient>
			<path class="st3" d="M488,307.1c0,0-6.3,6.9-8.3,10c-2,3-5.4,8.6-7.5,12.3c0,0-4.1,4.7-7.1,15.9c0,0-2.7,5.9-3,8.7
				c0,0-1.1,3.4-2.4,4.9c0,0-1,3.5,0,7c0,0-0.6,2.4,5.6,8c0,0,4,3.1,7.6,3.8c0,0,2.5-5.5,4.5-4.2c0,0,3.3-0.5,3.6-1.8
				c0,0,2.3-0.7,4.7,0.9c0,0,3.8,0.8,7.1-1.7c0,0,4-1.5,2-3c0,0-0.1-1.4,4-0.9c0,0,4.2,0.5,6.4-0.4c0,0,3.5,0.1,6.5,1.1
				c0,0,5.5-0.6,7.2-1.8c0,0,5.9-3.2,5.9-7.5c0,0,3.7-5.5-4.5-15.4c0,0-4.3-11.8-6.6-13.3c0,0-6.6-3.2-11.5-12.7c0,0-3.4-8.8-6-11
				C496.3,306,494.1,302.4,488,307.1L488,307.1z"/>
			
				<linearGradient id="SVGID_00000067233764141277094990000010618938155041020329_" gradientUnits="userSpaceOnUse" x1="467.7633" y1="628.4079" x2="477.6133" y2="639.2379" gradientTransform="matrix(1 0 0 -1 0 1000)">
				<stop  offset="0" style="stop-color:#7A4B4B;stop-opacity:0.5"/>
				<stop  offset="0.12" style="stop-color:#52353E;stop-opacity:0.5"/>
				<stop  offset="0.27" style="stop-color:#2E2133;stop-opacity:0.5"/>
				<stop  offset="0.43" style="stop-color:#18142C;stop-opacity:0.5"/>
				<stop  offset="0.61" style="stop-color:#11112A;stop-opacity:0.5"/>
			</linearGradient>
			<path style="fill:url(#SVGID_00000067233764141277094990000010618938155041020329_);" d="M466.7,363.3c0,0,1.9,0.1,4,2.3
				c0,0,3.8,2.4,8.1,4.1c0,0-1.8,2.1-4.4,2.5c0,0-5.3,0.9-8-1.1C466.5,371.2,461.4,364.6,466.7,363.3L466.7,363.3z"/>
			
				<linearGradient id="SVGID_00000160874367242456481460000013772448151639043237_" gradientUnits="userSpaceOnUse" x1="497.6808" y1="632.07" x2="497.1208" y2="658.29" gradientTransform="matrix(1 0 0 -1 0 1000)">
				<stop  offset="0" style="stop-color:#5A4355;stop-opacity:0.5"/>
				<stop  offset="0.3" style="stop-color:#31273D;stop-opacity:0.5"/>
				<stop  offset="0.61" style="stop-color:#11112A;stop-opacity:0.5"/>
			</linearGradient>
			<path style="fill:url(#SVGID_00000160874367242456481460000013772448151639043237_);" d="M484.4,362.8c0,0,1.3-3.7,5.8-5.8
				c0,0,3.7-3,8.6-2.6c0,0,3.9,0,6.8,2.1c0,0,4.3,2,5,4.5c0,0,0.7,2-2.8,2.8c0,0-5.8,0.2-9.1,0.7c0,0-4.4-0.5-6.1-0.2
				c0,0-3.4,0.2-4.2,0.6C488.3,364.9,484.9,367.3,484.4,362.8z"/>
		</g>
	</g>
	<g id="body">
		<path class="st6" d="M384,963.5c0,0-7.5,3.7-38.1-12.6c0,0-13.4-6-32.5-16.1c0,0-11.5-4.5-17.3-8.3c0,0-12.1-7.2-14.8-8.2
			c0,0-7.2-4.1-10.3-4.5c0,0-0.2,7.3-1.7,15.3c0,0-0.3,0.3-13.6-8.1c0,0-13.1-10.1-16.7-12.8c0,0-4.2-2.9-6.6-5.4
			c0,0-3.6-2.9-7.3-5.2c0,0-4-2.5-7-4.5c0,0-4.4-3.5-9.1-5.9c0,0-4.3-2.1-6.3-5.2c0,0-9.7-6-7.5-9.7c0,0,3.9-3.8,5.7-8.8
			c0,0,0.2-3.6,4.8-5.6c0,0,1.6-3.6,4.3-6.9c0,0,3.3,0.5,2.5-3.2c0,0,0.2-2.5,1.3-4.2c0,0,2.4-14.2,7.1-24.4c0,0,4.7-13.1,9.1-24.4
			c0,0,13.9-33,20.1-44.9c0,0,0.9-0.3,0.7-1.5c0,0-0.2-1.1,1.2-1.5c0,0-1.1-2.4,0-2.9c0,0,1.2-0.3,1.8-1.2c0,0,15.6-30,28-54.8
			c0,0,14.8-28,35.2-49.1c0,0-0.4-4.5,3.6-6.2c0,0,18.1-9,29.3-15.5c0,0,11.3-5.3,23.4-8.6c0,0,4.1-0.9,5.9-2.1
			c0,0,18.7-5.8,29.1-9.7c0,0,8.2-2.7,12.1-6.1c0,0,16.1-7.4,30.9-14.3c0,0,6.3-0.2,11.8-4.2c0,0,4.6-0.9,7.5-3.4
			c0,0,5.2-1.2,6.5-2.7c0,0,6.1-1.1,5-4.8c0,0,0.2-3.2,3.5-7.3c0,0,2.9-5,10.9-4.8c0,0,4.4-0.7,9.5-0.4c0,0,0.4,4.1,0.5,5.6
			c0,0,0.1,1.4,0.2,2.4c0,0-15.1,7.7-17.7,12.4c0,0-4.6,2.4,1.8,6.8c0,0,8.2,7.2,20,22c0,0,12,10.6,16.2,16.3
			c4.2,5.7,0.2,0.4,0.2,0.4s4.1,9.6,17.5,15.5c0,0,5.7,4,8.8,7.1c0,0,6.8,3.5,10.6,8.8c0,0,10.4,9.1,20.3,11.8c0,0,9.4,1.5,20.6,6.9
			c0,0,9.4,5.4,13.9,6c0,0,8.4,3.2,14.1,5.3c0,0,8.2,0.1,15.9,3.5c0,0,8.5,3.5,15.5-1.2c0,0,12.9-14.9,19.6-18.5
			c0,0,22.4-15.1,30.3-17.4c0,0,11.9-7.1,17.6-12c0,0,12.5-9.4,18.1-11.1c0,0,4.3-2.4,8.9-3.1c0,0,11.9-1.4,10.3-22.1
			c0,0,1.8-24.4-0.1-33c0,0,0.5-10.1,0-28.3c0,0-2.6-1.7-15.4-1.8c0,0-10.1-0.1-14-0.5c0,0,5.3-2.8,10.1-3.3c0,0,8.8-3.8,13-7
			c0,0,1.6-1.5,6.2,2.2c0,0,7.4,6.3,13,7.6c0,0,5.2-0.1,6.6,0.5c0,0,2.5,1.8,5.8,1.2c0,0,5.8,1.2,10,0.9c0,0,3.6,0.4,5.6,1.2
			c0,0,6,0.2,9.6-0.6c0,0,12-0.6,51.2,1.7c0,0,35.5-1.2,60.3,15.2c0,0,14.1,8.3,32,16.1c0,0,13.8,6,18.6,9.5c0,0,11.8,6.8,18.1,9.4
			l2,1V999H379.7C379.7,999,380.1,979.3,384,963.5L384,963.5z"/>
		<path class="st7" d="M258.4,999c0,0,12.2-73.7,12.6-85.3c0,0,0.5-0.9,5.4,1.9c0,0,24,13.3,37,19.1c0,0,12.5,6.5,24,12.1
			c0,0,9.6,4.6,20.1,9.7c0,0,17.3,8.6,26.5,6.8c0,0-2.4,11.7-3,17.3c0,0-1.1,9.6-1,10.4c0,0-0.2,5.4-0.4,7.9H258.4L258.4,999z"/>
		<path class="st8" d="M382.8,963.7c0,0-1.1,7.4-3.2,15.8c0,0-1.7,8.7-5.6,19.5h5.6c0,0,0-18,4.3-35.5
			C384,963.4,383.2,963.6,382.8,963.7L382.8,963.7z"/>
		
			<linearGradient id="SVGID_00000067954269455928405060000010091852941653335723_" gradientUnits="userSpaceOnUse" x1="206.9201" y1="116.5802" x2="270.1201" y2="78.7402" gradientTransform="matrix(1 0 0 -1 0 1000)">
			<stop  offset="0" style="stop-color:#5A4355;stop-opacity:0.5"/>
			<stop  offset="0.3" style="stop-color:#31273D;stop-opacity:0.5"/>
			<stop  offset="0.61" style="stop-color:#11112A;stop-opacity:0.5"/>
		</linearGradient>
		<path style="fill:url(#SVGID_00000067954269455928405060000010091852941653335723_);" d="M269.4,927.8c0,0,0.3,0.7-2-0.8
			c0,0-8.2-4.5-15.2-10.3c0,0-8.5-6.5-14-10.5c0,0-7.6-7.2-11.1-9.1c0,0-10.9-7.6-17.1-11.3c0,0-3.9-2.2-7.2-5.5
			c0,0-5.1-4.5-5.5-5.3c0,0,5.2,3,11.6,7.3c0,0,8,5.1,17.4,9.5c0,0,8.8,5.8,23.1,11.7c0,0,6.3,2.4,9.5,5.2c0,0,1.4,1.8,5.1,1.6
			c0,0,1,2.5,5.9,4.5c0,0,0.6,0.3,0.9-0.2c0,0-0.5,5.5-0.9,8.6C270,923.1,269.5,927.3,269.4,927.8L269.4,927.8z"/>
		
			<linearGradient id="SVGID_00000121977226934652129700000013269298179045742497_" gradientUnits="userSpaceOnUse" x1="299.63" y1="225.2801" x2="377.89" y2="246.1" gradientTransform="matrix(1 0 0 -1 0 1000)">
			<stop  offset="0" style="stop-color:#AD4D7B;stop-opacity:0"/>
			<stop  offset="0.31" style="stop-color:#A54273;stop-opacity:0.28"/>
			<stop  offset="0.99" style="stop-color:#932861;stop-opacity:0.99"/>
			<stop  offset="1" style="stop-color:#932861"/>
		</linearGradient>
		<path style="fill:url(#SVGID_00000121977226934652129700000013269298179045742497_);" d="M317.1,639.5c0,0,3.7,18.1,18.3,42.3
			c0,0,6.3,19.4,8.9,44.9c0,0,1.1,28.6,3.2,36.3c0,0,0.5,22-1.1,31c0,0,3.7,25.7,13.5,53.2c0,0,7.5,18,7.5,26c0,0,1.7,10.3,3.1,13.1
			c0,0-54.7,19.2-69.5-32.1c0,0-22.4-77.2-4.6-132.5c0,0-4.3-34.7,4.3-58.1C300.8,663.5,310.3,647.3,317.1,639.5L317.1,639.5z"/>
		
			<linearGradient id="SVGID_00000085243959471476589900000009210669400949691561_" gradientUnits="userSpaceOnUse" x1="488.6348" y1="449.0953" x2="501.5448" y2="434.5654" gradientTransform="matrix(1 0 0 -1 0 1000)">
			<stop  offset="0" style="stop-color:#000000;stop-opacity:0"/>
			<stop  offset="0.14" style="stop-color:#040103;stop-opacity:3.000000e-02"/>
			<stop  offset="0.3" style="stop-color:#12040B;stop-opacity:0.11"/>
			<stop  offset="0.46" style="stop-color:#28091A;stop-opacity:0.24"/>
			<stop  offset="0.63" style="stop-color:#48102F;stop-opacity:0.43"/>
			<stop  offset="0.81" style="stop-color:#701949;stop-opacity:0.67"/>
			<stop  offset="0.98" style="stop-color:#A12469;stop-opacity:0.97"/>
			<stop  offset="1" style="stop-color:#A7266D"/>
		</linearGradient>
		<path style="fill:url(#SVGID_00000085243959471476589900000009210669400949691561_);" d="M487.5,570.6c0,0-1.3-5.8-2.5-8.7
			c-0.1-0.1-0.5-3.2,4.1-8c0,0,3-3.5,8.7-3.7c0,0,4-1,8.2-0.8c0,0,0.5,5.3-0.4,6.6c0,0-5.2,4.4-8.3,5.9c0,0-5.3,3.3-8.3,7
			C489,569,488.1,569.4,487.5,570.6L487.5,570.6z"/>
		
			<linearGradient id="SVGID_00000083805334527352470020000000434756857679311501_" gradientUnits="userSpaceOnUse" x1="746.9242" y1="480.5026" x2="767.0342" y2="457.8826" gradientTransform="matrix(1 0 0 -1 0 1000)">
			<stop  offset="0" style="stop-color:#000000;stop-opacity:0"/>
			<stop  offset="0.14" style="stop-color:#040103;stop-opacity:3.000000e-02"/>
			<stop  offset="0.3" style="stop-color:#12040B;stop-opacity:0.11"/>
			<stop  offset="0.46" style="stop-color:#28091A;stop-opacity:0.24"/>
			<stop  offset="0.63" style="stop-color:#48102F;stop-opacity:0.43"/>
			<stop  offset="0.81" style="stop-color:#701949;stop-opacity:0.67"/>
			<stop  offset="0.98" style="stop-color:#A12469;stop-opacity:0.97"/>
			<stop  offset="1" style="stop-color:#A7266D"/>
		</linearGradient>
		<path style="fill:url(#SVGID_00000083805334527352470020000000434756857679311501_);" d="M764.5,521.4c0,0,4.4,4.7,4.3,9.8
			c0,0,0,1.5-1.7,0.4c0,0-10.6-0.8-11.6-0.8l-15-0.4c0,0,6.2-2.6,8.2-2.8s3-1,3-1s10.5-4.8,11.3-6.2
			C762.9,520.5,764.3,520.2,764.5,521.4L764.5,521.4z"/>
		
			<linearGradient id="SVGID_00000083786256852950971500000004290622748817141122_" gradientUnits="userSpaceOnUse" x1="884.7972" y1="277.0515" x2="1354.9373" y2="-17.5685" gradientTransform="matrix(1 0 0 -1 0 1000)">
			<stop  offset="0" style="stop-color:#000000;stop-opacity:0"/>
			<stop  offset="0.14" style="stop-color:#040103;stop-opacity:3.000000e-02"/>
			<stop  offset="0.3" style="stop-color:#12040B;stop-opacity:0.11"/>
			<stop  offset="0.46" style="stop-color:#28091A;stop-opacity:0.24"/>
			<stop  offset="0.63" style="stop-color:#48102F;stop-opacity:0.43"/>
			<stop  offset="0.81" style="stop-color:#701949;stop-opacity:0.67"/>
			<stop  offset="0.98" style="stop-color:#A12469;stop-opacity:0.97"/>
			<stop  offset="1" style="stop-color:#A7266D"/>
		</linearGradient>
		<path style="fill:url(#SVGID_00000083786256852950971500000004290622748817141122_);" d="M1002,587l-49.1-25.5
			c0,0,36,55.7,35.7,69.5c-0.3,13.8-38.4-49.8-38.4-49.8s-52.3-2.8-29.8,82.7L991.1,999h11L1002,587L1002,587z"/>
	</g>
</g>
</svg>
